<?xml version="1.0" encoding="UTF-8"?>
<svg xmlns="http://www.w3.org/2000/svg"  viewBox="0 0 48 48" width="32px" height="32px"><path d="M 25.849609 3.5644531 C 24.305666 3.5802581 19.138672 3.6035156 19.138672 3.6035156 A 1.50015 1.50015 0 0 0 17.958984 4.1855469 L 16.521484 6.0429688 C 15.658846 6.2740702 12.149427 7.3100832 9.6835938 10.976562 C 6.5936087 15.571011 8.8795041 21.694061 8.9902344 21.984375 L 9.0195312 22.117188 C 6.5480995 22.279581 4.5097656 24.25893 4.5097656 26.759766 C 4.5097656 27.986267 4.9389821 29.242602 5.875 30.169922 C 6.7367052 31.023619 8.0204195 31.469635 9.4589844 31.492188 C 9.811879 33.422824 10.44193 35.263878 11.486328 36.849609 A 1.5002601 1.5002601 0 0 0 13.992188 35.199219 C 12.814528 33.411155 12.099609 31.396533 12.099609 29.277344 L 12.166016 22.589844 A 1.50015 1.50015 0 0 0 12.126953 22.236328 L 11.900391 21.259766 A 1.50015 1.50015 0 0 0 11.859375 21.111328 C 11.859375 21.111328 10.24468 15.516856 12.173828 12.650391 C 14.206764 9.6275909 17.810547 8.7304687 17.810547 8.7304688 A 1.50015 1.50015 0 0 0 18.654297 8.1875 L 19.884766 6.5996094 C 20.791267 6.5954894 24.471014 6.5788851 25.880859 6.5644531 C 27.693334 6.5464011 29.145144 6.8822159 30.337891 7.4003906 A 1.5001682 1.5001682 0 1 0 31.533203 4.6484375 C 29.94995 3.9606122 28.053135 3.5425057 25.849609 3.5644531 z M 36.361328 9.9453125 A 1.50015 1.50015 0 0 0 35.095703 12.103516 C 35.336802 12.61596 35.483314 13.052814 35.548828 13.300781 C 35.738183 14.021537 35.868487 15.867781 35.923828 17.474609 C 35.868888 17.426969 35.836718 17.387359 35.785156 17.34375 C 34.892397 16.588645 34.164443 16.751456 33.423828 16.798828 C 32.683213 16.846198 31.867151 16.979086 30.955078 17.132812 C 29.130932 17.440266 26.946836 17.833216 24.867188 17.884766 C 23.835529 17.910446 22.306597 17.16004 21.119141 16.271484 C 19.931684 15.382929 19.119141 14.490234 19.119141 14.490234 A 1.50015 1.50015 0 0 0 16.667969 14.828125 C 16.130472 15.902241 15.480197 16.755906 14.796875 17.445312 A 1.50015 1.50015 0 1 0 16.927734 19.556641 C 17.411521 19.068546 17.806211 18.337514 18.246094 17.712891 C 18.65976 18.099689 18.684671 18.196725 19.322266 18.673828 C 20.758809 19.748772 22.679064 20.941084 24.941406 20.884766 C 27.339757 20.825316 29.664021 20.393344 31.453125 20.091797 C 32.347677 19.941023 33.112943 19.823144 33.615234 19.791016 C 33.854984 19.775676 34.007575 19.824924 34.066406 19.839844 C 34.757293 20.450527 35.576399 21.241483 35.974609 21.623047 L 35.886719 29.257812 A 1.50015 1.50015 0 0 0 35.886719 29.275391 C 35.886719 32.533195 34.167558 35.584113 31.748047 37.833984 C 29.328535 40.083856 26.217308 41.425781 23.992188 41.425781 C 22.379496 41.425781 20.290208 40.740129 18.351562 39.484375 A 1.5006447 1.5006447 0 1 0 16.720703 42.003906 C 19.046059 43.510152 21.582877 44.425781 23.992188 44.425781 C 27.316066 44.425781 30.901277 42.718379 33.791016 40.03125 C 36.399919 37.605266 38.360499 34.268459 38.734375 30.486328 C 41.325866 30.458998 43.5 28.38565 43.5 25.794922 C 43.5 23.290675 41.456492 21.307903 38.980469 21.150391 L 39.007812 18.833984 A 1.50015 1.50015 0 0 0 38.960938 18.421875 C 38.957193 18.174442 38.959828 18.002387 38.953125 17.738281 C 38.908155 15.966516 38.832268 13.985405 38.451172 12.537109 A 1.50015 1.50015 0 0 0 38.451172 12.535156 C 38.330691 12.079169 38.127448 11.499728 37.810547 10.826172 A 1.50015 1.50015 0 0 0 36.511719 9.9453125 A 1.50015 1.50015 0 0 0 36.361328 9.9453125 z M 38.945312 24.191406 C 39.833824 24.324724 40.5 24.957609 40.5 25.794922 C 40.5 26.645424 39.819157 27.293303 38.908203 27.410156 L 38.945312 24.191406 z M 9.140625 25.126953 L 9.1074219 28.373047 C 8.6790747 28.288342 8.1850385 28.235927 7.9863281 28.039062 C 7.684846 27.740382 7.5097656 27.302264 7.5097656 26.759766 C 7.5097656 25.895198 8.2056492 25.225361 9.140625 25.126953 z M 17.537109 25.845703 C 16.521109 25.845703 15.689453 26.677359 15.689453 27.693359 C 15.689453 28.709359 16.521109 29.539062 17.537109 29.539062 C 18.553109 29.538062 19.384766 28.708359 19.384766 27.693359 C 19.384766 26.677359 18.553109 25.845703 17.537109 25.845703 z M 30.462891 25.845703 C 29.446891 25.845703 28.615234 26.677359 28.615234 27.693359 C 28.615234 28.709359 29.446891 29.539062 30.462891 29.539062 C 31.478891 29.539062 32.310547 28.709359 32.310547 27.693359 C 32.310547 26.677359 31.478891 25.845703 30.462891 25.845703 z M 22.230469 34 C 21.444469 34 20.807641 34.638781 20.806641 35.425781 C 20.806641 36.212781 21.443469 36.849609 22.230469 36.849609 L 25.767578 36.849609 C 26.554578 36.849609 27.193359 36.212781 27.193359 35.425781 C 27.193359 34.638781 26.554578 34 25.767578 34 L 22.230469 34 z"/></svg>